<?xml version="1.0" encoding="UTF-8" standalone="no"?>
<!-- Created with Inkscape (http://www.inkscape.org/) -->

<svg
   width="1000"
   height="1000"
   viewBox="0 0 264.58333 264.58333"
   version="1.1"
   id="svg1"
   xml:space="preserve"
   inkscape:export-filename="SoloWebinar.svg"
   inkscape:export-xdpi="96"
   inkscape:export-ydpi="96"
   inkscape:version="1.3.1 (91b66b0783, 2023-11-16)"
   sodipodi:docname="SoloWebinar.svg"
   xmlns:inkscape="http://www.inkscape.org/namespaces/inkscape"
   xmlns:sodipodi="http://sodipodi.sourceforge.net/DTD/sodipodi-0.dtd"
   xmlns="http://www.w3.org/2000/svg"
   xmlns:svg="http://www.w3.org/2000/svg"><sodipodi:namedview
     id="namedview1"
     pagecolor="#505050"
     bordercolor="#ffffff"
     borderopacity="1"
     inkscape:showpageshadow="0"
     inkscape:pageopacity="0"
     inkscape:pagecheckerboard="1"
     inkscape:deskcolor="#d1d1d1"
     inkscape:document-units="mm"
     inkscape:zoom="0.5"
     inkscape:cx="456"
     inkscape:cy="445"
     inkscape:window-width="1600"
     inkscape:window-height="837"
     inkscape:window-x="-8"
     inkscape:window-y="116"
     inkscape:window-maximized="1"
     inkscape:current-layer="layer1" /><defs
     id="defs1" /><g
     inkscape:groupmode="layer"
     id="layer2"
     inkscape:label="Layer 2"
     style="display:inline;stroke-width:0.41471"
     transform="matrix(2.4127024,0,0,2.4099471,-170.34514,-173.35348)"><path
       id="rect4"
       style="display:inline;opacity:1;fill:#194556;fill-opacity:1;stroke-width:0.0432576;paint-order:fill markers stroke"
       d="m 89.95575,99.281795 c -6.376188,0 -11.509375,5.133185 -11.509375,11.509375 v 44.67944 c 0,6.37619 5.133187,11.50938 11.509375,11.50938 h 40.05905 c 0.83835,0.48402 10.39881,6.00348 14.7314,8.50491 2.87711,1.66109 4.56407,1.08102 4.56407,-2.77813 v -17.22582 c 0,-0.003 5.1e-4,-0.007 5.1e-4,-0.0103 v -44.67944 c 0,-6.37619 -5.13318,-11.509375 -11.50937,-11.509375 z"
       inkscape:label="rect4" /><path
       style="display:inline;opacity:1;fill:#194556;fill-opacity:1;stroke-width:0.041471;paint-order:fill markers stroke"
       d="m 153.74011,142.23416 v -15.99608 l 10.57051,-7.29646 c 3.46906,-2.00286 4.30304,-1.12782 4.30304,2.5257 v 25.25697 c 0,3.37904 -1.15055,3.74367 -4.11595,1.96443 z"
       id="path5"
       sodipodi:nodetypes="cccscsc" /></g><g
     inkscape:groupmode="layer"
     id="layer1"
     inkscape:label="Layer 3"
     style="display:inline"><path
       style="opacity:1;fill:#9d6ddc;stroke-width:0.264583;fill-opacity:1"
       d="m 159.27916,147.37291 c 0,-8.22986 -73.134772,-50.270828 -85.989578,-50.270828 -3.146719,0 -8.156909,81.039048 0.264584,99.747918 10.659935,0.32303 75.371064,-35.30389 85.724994,-49.47709 z"
       id="path1"
       sodipodi:nodetypes="cscc" /><path
       style="opacity:1;fill:#184454;fill-opacity:1;stroke:none;stroke-width:0.264583;stroke-opacity:1"
       d="m 162.10475,50.387075 c 0,0 18.82514,1.453073 32.89316,16.458963 12.2693,13.087249 14.4198,33.337502 14.4198,33.337502 0,0 0.9254,5.95313 7.0776,5.15938 0.26796,-0.0346 5.89797,-1.1603 4.72943,-7.772143 0,0 -0.42995,-21.993489 -18.42162,-40.646613 -17.99166,-18.653125 -39.7329,-18.544219 -39.7329,-18.544219 -3.04118,0 -6.08252,1.214699 -6.26184,5.541577 -0.23674,5.712586 5.29637,6.465553 5.29637,6.465553 z"
       id="path2"
       sodipodi:nodetypes="cscscscsc" /><path
       style="opacity:1;fill:#184454;fill-opacity:1;stroke:none;stroke-width:0.35467;stroke-opacity:1"
       d="m 171.8117,23.23154 c 0,0 25.23485,1.947825 44.09285,22.063022 16.44683,17.543283 19.32955,44.688478 19.32955,44.688478 0,0 1.24049,7.980092 9.48743,6.916081 0.35919,-0.04638 7.90615,-1.555367 6.33974,-10.418455 0,0 -0.57635,-29.48198 -24.69394,-54.486245 C 202.24975,6.9901554 173.1059,7.1361425 173.1059,7.1361425 c -4.07666,0 -8.15353,1.6282879 -8.39391,7.4284095 -0.31735,7.657646 7.09971,8.666988 7.09971,8.666988 z"
       id="path3"
       sodipodi:nodetypes="cscscscsc" /></g></svg>
